Coordinates
version=1
nRows=22
nColumns=30
inDegrees=yes

Units are S.I. units (second, meters, Newtons, ...)
Angles are in degrees.

endheader
time	floatyaw	floatroll	floatpitch	floatx	floaty	floatz	pro_sup_l	deviation_l	flexion_l	cmc_flexion_l	cmc_abduction_l	mp_flexion_l	ip_flexion_l	2mcp_flexion_l	2mcp_abduction_l	2pm_flexion_l	2md_flexion_l	3mcp_flexion_l	3mcp_abduction_l	3pm_flexion_l	3md_flexion_l	4mcp_flexion_l	4mcp_abduction_l	4pm_flexion_l	4md_flexion_l	5mcp_flexion_l	5mcp_abduction_l	5pm_flexion_l	5md_flexion_l
-0.495000	-160.147433	-5.066637	-73.570646	0.020289	-0.151116	-0.060252	114.549869	16.640575	-2.737964	15.744225	10.311004	-27.204562	-45.411218	34.463746	8.900304	51.002799	40.501653	34.677621	4.502485	56.182044	38.076869	29.533081	-4.751503	61.161677	45.529608	20.050179	-9.760521	70.990206	50.636056
-0.485000	-160.147433	-5.066637	-73.570646	0.018280	-0.149608	-0.062030	114.427118	17.195301	-2.993543	15.631739	10.488318	-27.178140	-45.353758	34.602460	8.980005	50.984673	40.662442	34.957918	4.503658	56.140710	38.065661	29.994286	-4.760240	60.966634	45.618372	20.450558	-9.802649	70.871739	50.687669
-0.475000	-160.147433	-5.066637	-73.570646	0.016025	-0.148012	-0.063966	114.173861	17.795807	-3.294806	15.528945	10.745474	-27.140185	-45.306327	34.765212	9.063482	50.917694	40.781298	35.248004	4.510241	56.109564	38.081657	30.504170	-4.767359	60.740354	45.750194	20.912786	-9.856766	70.735281	50.752127
-0.465000	-160.147433	-5.066637	-73.570646	0.013531	-0.146352	-0.066043	113.810926	18.434062	-3.634954	15.448652	11.080244	-27.069048	-45.258329	34.944763	9.143596	50.822568	40.867502	35.540157	4.524999	56.113684	38.137195	31.051600	-4.771675	60.525387	45.934100	21.430265	-9.936686	70.624097	50.847425
-0.455000	-160.147433	-5.066637	-73.570646	0.010813	-0.144649	-0.068245	113.376550	19.096379	-4.006093	15.393776	11.482547	-26.945435	-45.187306	35.117781	9.213534	50.725637	40.945782	35.814341	4.548395	56.173420	38.241965	31.612164	-4.770577	60.362127	46.169583	21.983406	-10.052034	70.573771	50.991140
-0.445000	-160.147433	-5.066637	-73.570646	0.007888	-0.142913	-0.070565	112.919260	19.766776	-4.398667	15.360923	11.934840	-26.759798	-45.067515	35.250523	9.270683	50.653066	41.044774	36.049194	4.577775	56.295377	38.397721	32.160314	-4.761476	60.269710	46.441838	22.546242	-10.202714	70.598565	51.190891
-0.435000	-160.147433	-5.066637	-73.570646	0.004770	-0.141150	-0.072996	112.489408	20.431304	-4.801622	15.345964	12.414027	-26.517136	-44.881689	35.310885	9.318876	50.623871	41.182372	36.233347	4.607900	56.469098	38.595513	32.681270	-4.744119	60.236854	46.723921	23.096483	-10.376977	70.686699	51.437619
-0.425000	-160.147433	-5.066637	-73.570646	0.001473	-0.139365	-0.075536	112.132567	21.081557	-5.203003	15.348303	12.894573	-26.237908	-44.631978	35.281059	9.367094	50.643607	41.355143	36.368264	4.633114	56.672480	38.818330	33.175194	-4.722037	60.228930	46.986596	23.622797	-10.554921	70.808349	51.706739
-0.415000	-160.147433	-5.066637	-73.570646	-0.001984	-0.137568	-0.078177	111.885808	21.715155	-5.590221	15.372074	13.351020	-25.954976	-44.345119	35.163880	9.424906	50.702012	41.536559	36.460646	4.650383	56.883599	39.048189	33.650452	-4.701925	60.208052	47.210908	24.123806	-10.716532	70.932028	51.966723
-0.405000	-160.147433	-5.066637	-73.570646	-0.005577	-0.135783	-0.080904	111.775668	22.332405	-5.950279	15.424427	13.757601	-25.706141	-44.066773	34.980976	9.497111	50.776498	41.684836	36.511812	4.661500	57.091845	39.273533	34.109776	-4.691192	60.155098	47.396923	24.599352	-10.850666	71.039051	52.190279
-0.395000	-160.147433	-5.066637	-73.570646	-0.009261	-0.134049	-0.083695	111.816975	22.931367	-6.271423	15.512230	14.085561	-25.522747	-43.844875	34.765881	9.580881	50.840184	41.757970	36.513809	4.673083	57.301455	39.493052	34.538328	-4.695167	60.081811	47.565198	25.041187	-10.960749	71.128039	52.363500
-0.385000	-160.147433	-5.066637	-73.570646	-0.012976	-0.132419	-0.086516	112.013533	23.505405	-6.546622	15.638445	14.303236	-25.418270	-43.709817	34.554860	9.667941	50.871748	41.731770	36.455178	4.694235	57.526358	39.715151	34.902067	-4.715487	60.027714	47.751559	25.431150	-11.064538	71.209781	52.491255
-0.375000	-160.147433	-5.066637	-73.570646	-0.016659	-0.130945	-0.089332	112.361768	24.045370	-6.776434	15.799109	14.384098	-25.383186	-43.662515	34.375871	9.751431	50.865249	41.614999	36.330931	4.732930	57.781778	39.954983	35.158485	-4.750382	60.045383	47.997452	25.749023	-11.187782	71.299542	52.598341
-0.365000	-160.147433	-5.066637	-73.570646	-0.020255	-0.129664	-0.092115	112.856114	24.544395	-6.968102	15.981878	14.321127	-25.389928	-43.676144	34.237176	9.833152	50.838307	41.454527	36.148964	4.792812	58.079103	40.231226	35.274359	-4.796391	60.182610	48.338012	25.984661	-11.353977	71.413010	52.725019
-0.355000	-160.147433	-5.066637	-73.570646	-0.023732	-0.128590	-0.094845	113.492949	25.000877	-7.130874	16.167430	14.137924	-25.405886	-43.709191	34.120503	9.925336	50.835182	41.325290	35.928890	4.871922	58.426027	40.563236	35.241099	-4.850241	60.469004	48.790639	26.146055	-11.574318	71.566106	52.916080
-0.345000	-160.147433	-5.066637	-73.570646	-0.027071	-0.127714	-0.097506	114.270671	25.416994	-7.271432	16.334356	13.886315	-25.408091	-43.723153	33.983602	10.044623	50.920379	41.306829	35.694310	4.963942	58.829525	40.968487	35.079736	-4.909725	60.910941	49.348535	26.258434	-11.842704	71.775109	53.206422
-0.335000	-160.147433	-5.066637	-73.570646	-0.030254	-0.127014	-0.100080	115.186182	25.794182	-7.393386	16.466038	13.628329	-25.392871	-43.698091	33.772519	10.202373	51.161763	41.456775	35.462585	5.061403	59.298886	41.460788	34.833574	-4.973449	61.495473	49.983647	26.356091	-12.138780	72.055203	53.610039
-0.325000	-160.147433	-5.066637	-73.570646	-0.033256	-0.126474	-0.102537	116.230352	26.129528	-7.500872	16.555687	13.410734	-25.376180	-43.639916	33.439435	10.398742	51.608302	41.794539	35.237620	5.159253	59.847334	42.049506	34.553930	-5.040338	62.200600	50.659251	26.473211	-12.437665	72.418351	54.118274
-0.315000	-160.147433	-5.066637	-73.570646	-0.036051	-0.126086	-0.104846	117.385384	26.415941	-7.602439	16.605647	13.245327	-25.384580	-43.575377	32.960831	10.624457	52.271556	42.302436	35.010851	5.256760	60.490835	42.738208	34.287691	-5.109649	63.005966	51.346107	26.639654	-12.720857	72.870769	54.707182
-0.305000	-160.147433	-5.066637	-73.570646	-0.038622	-0.125846	-0.106985	118.625704	26.645734	-7.711309	16.620548	13.105284	-25.441759	-43.536682	32.350668	10.867327	53.119361	42.941445	34.771571	5.356466	61.242892	43.521103	34.071392	-5.181055	63.897722	52.033239	26.882349	-12.982197	73.408823	55.348460
-0.295000	-160.147433	-5.066637	-73.570646	-0.040966	-0.125753	-0.108942	119.922411	26.814817	-7.841362	16.598966	12.939448	-25.557989	-43.544711	31.662352	11.117394	54.085082	43.672214	34.520648	5.460950	62.106716	44.379334	33.929173	-5.254084	64.865837	52.728164	27.227135	-13.226483	74.014323	56.018495
-0.285000	-160.147433	-5.066637	-73.570646	-0.043094	-0.125794	-0.110722	121.249945	26.924873	-8.001577	16.530405	12.697149	-25.727563	-43.601016	30.975204	11.367827	55.088679	44.471038	34.277957	5.569966	63.069366	45.282292	33.870526	-5.327257	65.897712	53.448384	27.695573	-13.463039	74.654045	56.703428
